<svg width="74" height="29" viewBox="0 0 74 29" fill="none" xmlns="http://www.w3.org/2000/svg">
<path d="M9.28 3.4H6.44C4.94667 3.4 3.8 3.77333 3 4.52C2.22667 5.26667 1.84 6.49333 1.84 8.2H0.64V4.8C0.64 2.66667 1.77333 1.6 4.04 1.6H22.84V3.4H14.48V28H9.28V3.4ZM33.9278 28.68C32.4345 28.68 30.9945 28.48 29.6078 28.08C28.2211 27.7067 27.0878 27.16 26.2078 26.44C25.3278 25.6933 24.8878 24.84 24.8878 23.88V19.2H26.0078C26.4078 21.92 27.2478 23.88 28.5278 25.08C29.8078 26.28 31.5945 26.88 33.8878 26.88C35.4345 26.88 36.6611 26.5467 37.5678 25.88C38.4745 25.2133 38.9278 24.2533 38.9278 23C38.9278 21.9333 38.5945 21.0267 37.9278 20.28C37.2611 19.5333 36.2211 18.72 34.8078 17.84L29.8878 14.88C28.1011 13.84 26.8211 12.76 26.0478 11.64C25.3011 10.52 24.9278 9.21333 24.9278 7.72C24.9278 5.61333 25.7278 3.94667 27.3278 2.72C28.9545 1.49333 31.1411 0.879999 33.8878 0.879999C35.3811 0.879999 36.8211 1.08 38.2078 1.48C39.5945 1.85333 40.7278 2.41333 41.6078 3.16C42.4878 3.88 42.9278 4.72 42.9278 5.68V10.36H41.8078C41.3545 7.64 40.5145 5.68 39.2878 4.48C38.0611 3.28 36.4078 2.68 34.3278 2.68C32.8878 2.68 31.7411 3.02667 30.8878 3.72C30.0611 4.41333 29.6478 5.36 29.6478 6.56C29.6478 7.6 29.9678 8.46667 30.6078 9.16C31.2745 9.82667 32.3411 10.5867 33.8078 11.44L38.7278 14.36C40.5945 15.4533 41.9278 16.52 42.7278 17.56C43.5545 18.5733 43.9678 19.8 43.9678 21.24C43.9678 23.56 43.0878 25.3867 41.3278 26.72C39.5945 28.0267 37.1278 28.68 33.9278 28.68ZM70.6697 28.4C68.9897 28.4 67.3764 28.0667 65.8297 27.4C64.3097 26.7067 62.6697 25.44 60.9097 23.6L54.4697 16.88V28H49.2697L49.2297 6.8C49.2297 5.44 49.043 4.44 48.6697 3.8C48.2964 3.13333 47.5497 2.8 46.4297 2.8H46.0297V1.6H50.8297C51.763 1.6 52.483 1.76 52.9897 2.08C53.523 2.4 53.8964 2.93333 54.1097 3.68C54.3497 4.42666 54.4697 5.46667 54.4697 6.8V14.4L61.3897 5.8C62.3764 4.52 63.4297 3.50666 64.5497 2.76C65.6964 1.98667 67.003 1.6 68.4697 1.6H71.2697V3C69.6164 3 68.1897 3.21333 66.9897 3.64C65.8164 4.04 64.803 4.77333 63.9497 5.84L57.9897 13.2L67.2297 22.8C68.2164 23.8933 69.323 24.8533 70.5497 25.68C71.803 26.48 72.8164 26.9333 73.5897 27.04V28C72.7897 28.2667 71.8164 28.4 70.6697 28.4Z" fill="black"/>
</svg>
